<?xml version="1.0" encoding="utf-8"?>
<!-- Generator: Adobe Illustrator 26.3.1, SVG Export Plug-In . SVG Version: 6.00 Build 0)  -->
<svg version="1.1" id="Capa_1" xmlns="http://www.w3.org/2000/svg" xmlns:xlink="http://www.w3.org/1999/xlink" x="0px" y="0px"
	 viewBox="0 0 1222.79 528.12" style="enable-background:new 0 0 1222.79 528.12;" xml:space="preserve">
<style type="text/css">
	.st0{display:none;fill:#292E8A;}
	.st1{fill:#292E8A;}
</style>
<path class="st0" d="M543,190.24c-1.98-1.42-4.54-2.35-7.9-2.42c-16.61-0.37-226.49,0.8-226.49,0.8s-2.91,0.1-5.86,1.72
	c-3.57,1.29-8.28,4.55-8.11,12.76c-0.01,0.29,0,0.59,0,0.89c-0.02,0.68,0.01,1.4,0.07,2.16c-0.07,1.04-0.18,2.96-0.15,5.41
	c0,0.27,0,0.54,0,0.82c-0.02,8,1.28,22.79,10.56,28.68l79.47-0.28c0,0,2.23-0.62,4.87-2.31c2.8-1.16,8.72-4.37,10.93-11.42
	c1.28-4.06,0.08-8.2,4.37-11.32c7.56-2.95,23.8-4.41,59.49-2.9c0,0,9.7-1.66,10.1,14.44c-0.04,2.27-0.23,4.83-0.65,7.78
	c-2.04,14.3-3.6,19.79-6.74,21.91c-2.46,0.67-5.73,0.36-10.37,0.53c-13.2,0.47-15.75,0.06-15.75,0.06l-122.19,0.62
	c0,0-6.56-0.89-12.91,2.37c-6.52,2.54-13.55,8.97-13.66,24.84c-0.01,0.3,0,0.62,0,0.93c-0.02,0.94-0.02,1.91,0.01,2.91
	c0.96,31.93,1,43.28,30.79,40.05l205.21-0.23c0,0,5.72,0.71,10.97-2.9c5.18-2,11.22-7.27,11.88-20.86
	c1.19-24.27-0.34-95.21-0.34-95.21S552.37,195.16,543,190.24z M457.34,312.69l-41.72,0.15c-3.64,0.01-7.06-0.98-10.01-2.69
	c-5.21-3.61-8.65-9.6-8.68-16.38c-0.02-7.02,3.63-13.23,9.13-16.82c2.31-0.95,4.82-1.48,7.46-1.49l41.72-0.15
	c10.71-0.04,19.53,8.47,20.03,19.06c-0.3,7.37-4.62,13.74-10.83,16.96C462.24,312.19,459.85,312.68,457.34,312.69z"/>
<g>
	<path class="st1" d="M1059.97,327.34h-88.48c-3.82,0-7.26-1.62-9.68-4.2c-2.22-2.37-3.57-5.55-3.57-9.05V211.65
		c0-3.64,1.47-6.94,3.84-9.33c2.4-2.42,5.73-3.92,9.41-3.92h88.48c4.1,0,7.77,1.86,10.2,4.79c1.91,2.3,3.05,5.25,3.05,8.46v102.44
		c0,3.81-1.61,7.25-4.18,9.67C1066.67,325.98,1063.48,327.34,1059.97,327.34z"/>
	<path class="st1" d="M1060.14,185.04h-88.82c-3.88,0-7.36-1.68-9.75-4.36c-2.07-2.31-3.33-5.37-3.33-8.72v-16.04
		c0-3.61,1.46-6.88,3.83-9.25c2.37-2.37,5.64-3.83,9.25-3.83h88.82c3.39,0,6.48,1.29,8.81,3.41c2.63,2.39,4.27,5.84,4.27,9.67v16.04
		c0,3.61-1.46,6.88-3.83,9.25C1067.02,183.58,1063.75,185.04,1060.14,185.04z"/>
	<path class="st1" d="M242.37,142.84h-70.49c-6.14,0-11.69,2.48-15.73,6.48c-4.07,4.04-6.59,9.64-6.59,15.83v142.13
		c0,6.15,2.49,11.72,6.51,15.76c4.04,4.05,9.63,6.56,15.81,6.56h70.49c5.93,0,11.32-2.31,15.31-6.08c4.31-4.07,7-9.84,7-16.23
		V165.15c0-6.35-2.66-12.09-6.92-16.15C253.76,145.18,248.34,142.84,242.37,142.84z"/>
	<path class="st1" d="M903.32,186.52h-16.08h-21.07h-81.79h-36.7H666.1h-47.42h-20.17c-11.99,0-21.72,9.72-21.72,21.72v99.57
		c0,11.99,9.72,21.72,21.72,21.72h67.6c11.99,0,21.72-9.72,21.72-21.72V232.5v-0.2c0-10.53,8.54-19.07,19.07-19.07h0
		c10.53,0,19.07,8.54,19.07,19.07v0.2v75.31c0,11.99,9.72,21.72,21.72,21.72h36.7c11.99,0,21.72-9.72,21.72-21.72V232.5v-0.09
		c0-10.59,8.59-19.18,19.18-19.18h0c10.59,0,19.18,8.59,19.18,19.18v0.09v75.31c0,11.99,9.72,21.72,21.72,21.72h37.14
		c11.99,0,21.72-9.72,21.72-21.72v-99.57C925.04,196.25,915.32,186.52,903.32,186.52z"/>
	<path class="st1" d="M530.44,187.74h-27.13h-7.08H380.17h-38.16h-26.82c-11.58,0-20.96,9.38-20.96,20.96v11.25
		c0,11.58,9.38,20.96,20.96,20.96h64.99c10.85,0,19.77-8.24,20.85-18.81h0.08c0.73-5.86,5.72-10.39,11.77-10.39h50.43
		c6.06,0,11.04,4.54,11.77,10.39h0.19v22.21h-0.09v1.49c0,6.56-5.32,11.88-11.88,11.88h-0.17v0.09H382
		c-0.6-0.05-1.21-0.09-1.83-0.09h-64.99c-11.58,0-20.96,9.38-20.96,20.96v29.46c0,11.58,9.38,20.96,20.96,20.96h26.82h38.16h116.06
		h7.08h27.13c11.58,0,20.96-9.38,20.96-20.96v-99.4C551.4,197.13,542.02,187.74,530.44,187.74z M475.19,294.1
		c0,10.35-8.39,18.74-18.74,18.74h-36.71c-10.35,0-18.74-8.39-18.74-18.74v0c0-10.35,8.39-18.74,18.74-18.74h36.71
		C466.8,275.37,475.19,283.75,475.19,294.1L475.19,294.1z"/>
</g>
</svg>
